<?xml version="1.0" encoding="iso-8859-1"?>
<!-- Generator: Adobe Illustrator 16.0.0, SVG Export Plug-In . SVG Version: 6.00 Build 0)  -->
<!DOCTYPE svg PUBLIC "-//W3C//DTD SVG 1.1//EN" "http://www.w3.org/Graphics/SVG/1.1/DTD/svg11.dtd">
<svg version="1.1" id="Capa_1" xmlns="http://www.w3.org/2000/svg" xmlns:xlink="http://www.w3.org/1999/xlink" x="0px" y="0px"
	 width="50px" height="50px" viewBox="0 0 50 50" style="enable-background:new 0 0 50 50;" xml:space="preserve">
<g>
	<path d="M49.367,20.627L26.713,9.301c-0.838-0.421-2.223-0.421-3.062,0L0.998,20.627c-0.845,0.419-0.845,1.107,0,1.535l1.269,0.635
		v4.715c-0.43,0.117-0.754,0.489-0.754,0.954c0,0.366,0.205,0.679,0.502,0.853l-1.94,7.183C0.03,36.594,0,36.688,0,36.784l0,0v0.002
		l0,0c0,0.662,1.129,1.2,2.521,1.2c1.389,0,2.517-0.538,2.521-1.2l0,0v-0.002l0,0c0-0.096-0.033-0.188-0.078-0.283l-1.937-7.183
		c0.294-0.174,0.501-0.486,0.501-0.853c0-0.465-0.325-0.838-0.753-0.954v-4.465l9.054,4.532c-0.063,0.161-0.108,0.33-0.108,0.503
		v9.495c0,0.002-0.001,0.011-0.001,0.014c0,1.888,6.028,3.425,13.458,3.425c7.437,0,13.462-1.537,13.462-3.425
		c0-0.011-0.004-0.016-0.004-0.021c0,0.004,0.008,0.007,0.008,0.018v-9.506c0-0.173-0.045-0.342-0.11-0.503l10.834-5.417
		C50.211,21.734,50.211,21.046,49.367,20.627z M25.177,40.159c-8.184,0-12.601-1.826-12.601-2.567c0-0.773,4.291-2.578,12.601-2.578
		c8.318,0,12.603,1.805,12.603,2.578C37.779,38.332,33.368,40.159,25.177,40.159z"/>
</g>
<g>
</g>
<g>
</g>
<g>
</g>
<g>
</g>
<g>
</g>
<g>
</g>
<g>
</g>
<g>
</g>
<g>
</g>
<g>
</g>
<g>
</g>
<g>
</g>
<g>
</g>
<g>
</g>
<g>
</g>
</svg>
