<?xml version="1.0" standalone="no"?>
<!DOCTYPE svg PUBLIC "-//W3C//DTD SVG 20010904//EN"
 "http://www.w3.org/TR/2001/REC-SVG-20010904/DTD/svg10.dtd">
<svg version="1.0" xmlns="http://www.w3.org/2000/svg"
 width="1500.000000pt" height="1500.000000pt" viewBox="0 0 1500.000000 1500.000000"
 preserveAspectRatio="xMidYMid meet">
<metadata>
Created by potrace 1.10, written by Peter Selinger 2001-2011
</metadata>
<g transform="translate(0.000000,1500.000000) scale(0.100000,-0.100000)"
fill="#000000" stroke="none">
<path d="M6816 13128 c-9 -12 -16 -26 -16 -31 0 -5 -6 -23 -14 -40 -7 -18 -20
-50 -29 -72 -8 -22 -25 -65 -38 -95 -24 -60 -40 -102 -88 -229 -34 -92 -32
-101 22 -101 25 0 32 7 50 51 l22 52 110 -6 c97 -5 112 -8 127 -28 10 -11 18
-32 18 -45 0 -29 41 -58 70 -49 24 8 27 50 6 116 -7 24 -21 73 -31 109 -9 36
-23 88 -30 115 -8 28 -21 75 -28 105 -33 124 -38 140 -53 155 -24 23 -80 19
-98 -7z m68 -150 c3 -13 17 -72 32 -132 22 -90 24 -110 13 -118 -13 -8 -145
-1 -162 9 -10 6 1 59 18 93 8 14 26 58 40 98 27 73 50 92 59 50z"/>
<path d="M5831 13104 c-76 -24 -140 -105 -141 -179 0 -42 29 -232 43 -280 16
-54 67 -109 115 -123 153 -46 292 45 292 190 0 90 -30 270 -52 310 -48 85
-147 117 -257 82z m149 -86 c16 -12 34 -36 40 -54 18 -52 38 -256 29 -293 -12
-53 -53 -80 -120 -81 -52 0 -59 3 -87 34 -23 27 -32 49 -41 112 -30 201 -28
230 21 276 39 37 113 40 158 6z"/>
<path d="M7661 13003 c-10 -25 -29 -97 -51 -193 -15 -69 -33 -136 -45 -175
-23 -72 -38 -153 -32 -169 4 -10 18 -16 37 -16 37 0 39 5 87 195 37 146 50
183 62 169 4 -5 15 -36 25 -69 11 -33 31 -98 47 -145 15 -47 35 -114 45 -149
16 -53 24 -66 52 -79 28 -14 34 -14 47 -1 8 8 45 135 82 283 65 260 67 269 48
282 -49 36 -60 17 -110 -175 -24 -95 -46 -176 -50 -179 -9 -10 -21 11 -40 68
-10 30 -23 71 -30 90 -22 58 -75 235 -75 247 0 17 -40 43 -66 43 -14 0 -25 -9
-33 -27z"/>
<path d="M5049 12931 l-24 -19 19 -59 c32 -101 42 -136 60 -198 10 -33 22 -73
28 -90 5 -16 14 -46 18 -65 24 -103 36 -125 67 -128 52 -5 57 15 27 114 -14
49 -32 112 -40 139 -16 56 -37 126 -60 200 -8 28 -18 61 -21 75 -5 24 -28 50
-44 50 -4 0 -17 -9 -30 -19z"/>
<path d="M9453 11619 c-67 -66 -100 -106 -95 -114 4 -7 49 -58 100 -113 51
-55 108 -120 128 -144 90 -112 247 -324 296 -400 49 -75 71 -110 132 -211 46
-76 179 -347 224 -455 86 -205 180 -489 218 -662 75 -338 95 -489 113 -820 16
-300 -17 -717 -79 -1005 -12 -55 -26 -120 -31 -144 -5 -25 -13 -59 -19 -75 -5
-17 -16 -58 -25 -91 -173 -629 -509 -1231 -959 -1718 -50 -55 -92 -104 -94
-111 -4 -15 191 -206 211 -206 17 0 173 161 277 285 278 333 533 756 700 1160
18 44 38 94 45 110 29 70 127 377 140 440 4 17 10 41 15 55 4 14 15 61 25 105
9 44 21 96 25 115 26 105 74 474 85 645 18 275 -10 793 -55 1023 -6 32 -18 93
-26 137 -126 659 -427 1321 -853 1875 -149 195 -354 420 -381 420 -8 0 -61
-46 -117 -101z"/>
<path d="M3581 11628 c-430 -452 -755 -982 -976 -1598 -82 -228 -170 -587
-200 -820 -8 -69 -21 -154 -26 -190 -26 -158 -26 -794 0 -970 6 -41 18 -127
27 -190 34 -251 104 -535 195 -803 75 -219 234 -574 317 -710 23 -37 42 -69
42 -72 0 -21 194 -313 304 -460 133 -176 378 -445 406 -445 14 0 210 189 210
203 0 5 -44 57 -98 115 -154 168 -311 368 -414 527 -76 118 -102 159 -119 190
-9 17 -44 79 -78 139 -34 60 -61 112 -61 115 0 3 -12 29 -26 56 -28 56 -112
247 -124 285 -5 14 -18 50 -30 80 -68 174 -158 509 -194 725 -10 55 -22 123
-27 150 -15 79 -29 273 -36 485 -6 191 8 473 29 605 5 33 13 90 17 126 5 36
13 88 19 115 6 27 19 87 28 134 34 170 138 524 183 625 5 11 30 70 55 132 26
61 62 143 81 182 19 39 35 72 35 75 0 4 100 185 119 216 5 8 42 67 81 130 80
130 201 298 275 385 28 32 60 72 72 88 12 16 68 79 124 139 l103 110 -106 104
c-57 57 -110 104 -116 104 -7 0 -47 -37 -91 -82z"/>
<path d="M4477 11132 c-24 -26 -21 -59 7 -77 13 -9 61 -20 107 -25 176 -20
238 -56 269 -156 22 -73 23 -3205 1 -3274 -20 -62 -39 -88 -80 -114 -38 -24
-175 -56 -239 -56 -72 0 -110 -59 -60 -94 20 -14 96 -16 628 -16 653 1 640 0
640 53 0 34 -34 57 -85 57 -22 0 -79 9 -127 19 -103 21 -145 49 -179 118 l-24
48 0 1615 c0 1544 1 1617 18 1660 37 90 96 122 261 140 49 5 99 16 112 25 30
20 33 70 5 85 -13 6 -228 10 -629 10 -577 0 -610 -1 -625 -18z"/>
<path d="M6195 9803 c-45 -11 -57 -42 -32 -78 11 -14 43 -22 136 -36 147 -22
194 -44 231 -109 l25 -45 0 -1620 c0 -1489 -1 -1622 -17 -1650 -43 -79 -106
-109 -258 -124 -118 -12 -163 -55 -108 -102 20 -18 72 -19 1558 -19 1450 0
1539 1 1559 18 21 16 22 30 36 382 12 320 12 368 -1 388 -8 13 -25 22 -39 22
-30 0 -47 -25 -70 -105 -77 -269 -200 -424 -396 -495 -30 -11 -100 -29 -157
-40 -97 -19 -145 -20 -788 -20 -675 0 -686 0 -734 21 -59 25 -93 67 -114 140
-15 50 -16 213 -13 1615 2 1360 4 1563 17 1594 43 99 83 124 242 146 130 19
161 33 156 72 -6 52 -6 52 -633 51 -319 -1 -589 -4 -600 -6z"/>
<path d="M4815 4663 c-9 -21 -29 -74 -44 -118 -79 -227 -120 -342 -125 -356
-10 -24 21 -45 119 -79 50 -17 119 -41 153 -53 63 -21 64 -21 78 -2 8 10 13
24 11 30 -4 11 -49 35 -112 58 -137 52 -156 61 -149 76 3 9 12 34 19 56 7 22
27 78 45 125 17 47 36 101 42 120 5 19 13 40 17 45 4 6 14 30 21 53 16 52 6
75 -33 80 -22 3 -29 -3 -42 -35z"/>
<path d="M8232 4688 c-6 -6 -12 -19 -12 -28 0 -18 71 -232 97 -293 29 -67 3
-59 -112 34 -200 164 -238 190 -264 187 -13 -2 -29 -11 -35 -20 -11 -18 1 -55
134 -443 31 -90 46 -105 85 -87 32 15 31 33 -4 122 -12 30 -36 95 -52 143 -17
49 -33 95 -36 103 -8 22 21 17 48 -9 13 -13 80 -68 149 -122 69 -55 134 -108
144 -117 24 -22 54 -22 81 -2 20 15 19 16 -18 122 -21 59 -42 121 -47 137 -4
17 -18 55 -30 85 -12 30 -24 64 -27 75 -3 11 -11 34 -18 50 -7 17 -15 39 -17
50 -4 24 -47 32 -66 13z"/>
<path d="M5620 4435 c-5 -14 -14 -51 -19 -83 -6 -31 -24 -129 -41 -217 -48
-244 -47 -233 -16 -241 52 -13 52 -12 101 234 8 39 21 105 29 145 39 193 39
187 -10 187 -28 0 -36 -5 -44 -25z"/>
<path d="M7185 4410 c-12 -14 -26 -72 -47 -197 -50 -309 -58 -368 -53 -381 3
-8 16 -12 32 -10 28 3 42 23 60 83 9 33 14 34 148 54 59 9 72 8 87 -6 10 -9
18 -21 18 -28 0 -19 47 -57 66 -53 9 1 21 10 27 19 10 16 -13 68 -188 422
l-58 117 -37 0 c-24 0 -43 -7 -55 -20z m92 -155 c3 -11 26 -62 51 -113 38 -77
43 -95 32 -102 -26 -16 -150 -34 -160 -24 -7 7 -5 42 4 100 8 49 18 110 21
136 6 44 8 47 26 35 10 -6 22 -21 26 -32z"/>
<path d="M6191 4376 c-10 -11 -15 -84 -21 -278 -4 -144 -6 -267 -3 -274 10
-26 46 -28 65 -4 14 17 18 40 18 107 0 122 1 123 113 122 116 -2 165 20 200
88 33 64 18 151 -35 200 -36 34 -65 41 -199 48 -108 6 -126 5 -138 -9z m253
-76 c29 -11 56 -57 56 -95 0 -31 -46 -81 -83 -90 -14 -4 -54 -3 -89 2 l-63 8
-3 70 c-5 114 -4 115 83 115 40 0 85 -4 99 -10z"/>
</g>
</svg>
